<svg width="160" height="140" viewBox="0 0 160 140" fill="none" xmlns="http://www.w3.org/2000/svg">
<rect width="160" height="140" rx="24" fill="white" fill-opacity="0.45"/>
<path d="M89.1666 32.4165H70.8333C65.3333 32.4165 61.6666 35.1665 61.6666 41.5832V54.4165C61.6666 60.8332 65.3333 63.5832 70.8333 63.5832H89.1666C94.6666 63.5832 98.3333 60.8332 98.3333 54.4165V41.5832C98.3333 35.1665 94.6666 32.4165 89.1666 32.4165ZM90.0283 43.5815L84.29 48.1648C83.08 49.1365 81.54 49.6132 80 49.6132C78.46 49.6132 76.9016 49.1365 75.71 48.1648L69.9716 43.5815C69.385 43.1048 69.2933 42.2248 69.7516 41.6382C70.2283 41.0515 71.09 40.9415 71.6766 41.4182L77.415 46.0015C78.8083 47.1198 81.1733 47.1198 82.5666 46.0015L88.305 41.4182C88.8916 40.9415 89.7716 41.0332 90.23 41.6382C90.7066 42.2248 90.615 43.1048 90.0283 43.5815Z" fill="#202020"/>
<path d="M56.2256 115H52.9033V112.943H56.1025C57.0107 112.943 57.7695 112.779 58.3789 112.451C58.9941 112.117 59.4541 111.616 59.7588 110.948C60.0693 110.28 60.2246 109.445 60.2246 108.443C60.2246 107.441 60.0723 106.609 59.7676 105.947C59.4629 105.285 59.0088 104.79 58.4053 104.462C57.8018 104.128 57.0547 103.961 56.1641 103.961H52.833V101.904H56.3047C57.6055 101.904 58.7217 102.165 59.6533 102.687C60.5908 103.208 61.3115 103.958 61.8154 104.937C62.3193 105.915 62.5713 107.084 62.5713 108.443C62.5713 109.803 62.3193 110.975 61.8154 111.959C61.3115 112.938 60.585 113.69 59.6357 114.218C58.6924 114.739 57.5557 115 56.2256 115ZM54.1514 101.904V115H51.7783V101.904H54.1514ZM68.3896 115.193C67.4053 115.193 66.5557 114.988 65.8408 114.578C65.126 114.162 64.5752 113.576 64.1885 112.82C63.8076 112.064 63.6172 111.174 63.6172 110.148C63.6172 109.135 63.8076 108.247 64.1885 107.485C64.5693 106.718 65.1055 106.12 65.7969 105.692C66.4883 105.265 67.3027 105.051 68.2402 105.051C68.8438 105.051 69.415 105.147 69.9541 105.341C70.499 105.534 70.9795 105.833 71.3955 106.237C71.8174 106.642 72.1484 107.157 72.3887 107.784C72.6289 108.405 72.749 109.146 72.749 110.008V110.729H64.6982V109.173H71.5977L70.5166 109.63C70.5166 109.073 70.4316 108.59 70.2617 108.18C70.0918 107.764 69.8398 107.438 69.5059 107.204C69.1719 106.97 68.7559 106.853 68.2578 106.853C67.7598 106.853 67.335 106.97 66.9834 107.204C66.6318 107.438 66.3652 107.755 66.1836 108.153C66.002 108.546 65.9111 108.985 65.9111 109.472V110.553C65.9111 111.15 66.0137 111.663 66.2188 112.091C66.4297 112.513 66.7227 112.835 67.0977 113.058C67.4785 113.28 67.9209 113.392 68.4248 113.392C68.7529 113.392 69.0518 113.345 69.3213 113.251C69.5967 113.157 69.8311 113.017 70.0244 112.829C70.2236 112.636 70.376 112.398 70.4814 112.117L72.6436 112.372C72.5029 112.94 72.2422 113.438 71.8613 113.866C71.4863 114.288 71.0029 114.616 70.4111 114.851C69.8252 115.079 69.1514 115.193 68.3896 115.193ZM78.998 105.174V106.967H73.2061V105.174H78.998ZM74.6475 115V104.251C74.6475 103.589 74.7852 103.038 75.0605 102.599C75.3359 102.159 75.7051 101.831 76.168 101.614C76.6367 101.397 77.1523 101.289 77.7148 101.289C78.1191 101.289 78.4766 101.321 78.7871 101.386C79.1035 101.45 79.335 101.509 79.4814 101.562L79.0068 103.354C78.9131 103.319 78.793 103.287 78.6465 103.258C78.5 103.223 78.333 103.205 78.1455 103.205C77.7178 103.205 77.4102 103.311 77.2227 103.521C77.041 103.732 76.9502 104.031 76.9502 104.418V115H74.6475ZM82.6543 115.202C82.0273 115.202 81.4648 115.091 80.9668 114.868C80.4688 114.64 80.0762 114.306 79.7891 113.866C79.502 113.427 79.3584 112.885 79.3584 112.24C79.3584 111.689 79.4609 111.232 79.666 110.869C79.8711 110.506 80.1494 110.216 80.501 109.999C80.8584 109.782 81.2598 109.618 81.7051 109.507C82.1504 109.39 82.6104 109.308 83.085 109.261C83.665 109.196 84.1338 109.141 84.4912 109.094C84.8486 109.047 85.1064 108.971 85.2646 108.865C85.4287 108.76 85.5107 108.596 85.5107 108.373V108.329C85.5107 107.854 85.3701 107.485 85.0889 107.222C84.8076 106.958 84.3975 106.826 83.8584 106.826C83.29 106.826 82.8389 106.949 82.5049 107.195C82.1768 107.441 81.9541 107.731 81.8369 108.065L79.6836 107.758C79.8535 107.16 80.1348 106.662 80.5273 106.264C80.9199 105.859 81.3975 105.558 81.96 105.358C82.5283 105.153 83.1553 105.051 83.8408 105.051C84.3096 105.051 84.7783 105.106 85.2471 105.218C85.7158 105.323 86.1465 105.505 86.5391 105.763C86.9316 106.021 87.2451 106.366 87.4795 106.8C87.7139 107.233 87.8311 107.775 87.8311 108.426V115H85.6074V113.646H85.5371C85.3965 113.916 85.1973 114.171 84.9395 114.411C84.6875 114.646 84.3711 114.836 83.9902 114.982C83.6152 115.129 83.1699 115.202 82.6543 115.202ZM83.2432 113.497C83.7119 113.497 84.1162 113.406 84.4561 113.225C84.7959 113.037 85.0596 112.791 85.2471 112.486C85.4346 112.176 85.5283 111.839 85.5283 111.476V110.324C85.4521 110.383 85.3291 110.438 85.1592 110.491C84.9893 110.538 84.7959 110.582 84.5791 110.623C84.3623 110.664 84.1484 110.699 83.9375 110.729C83.7324 110.758 83.5537 110.781 83.4014 110.799C83.0557 110.846 82.7451 110.925 82.4697 111.036C82.2002 111.142 81.9863 111.288 81.8281 111.476C81.6699 111.663 81.5908 111.906 81.5908 112.205C81.5908 112.633 81.7461 112.955 82.0566 113.172C82.3672 113.389 82.7627 113.497 83.2432 113.497ZM95.8027 110.878V105.174H98.1143V115H95.873V113.251H95.7676C95.5449 113.802 95.1816 114.253 94.6777 114.604C94.1738 114.956 93.5527 115.129 92.8145 115.123C92.1699 115.123 91.6016 114.982 91.1094 114.701C90.623 114.414 90.2393 113.995 89.958 113.444C89.6826 112.888 89.5449 112.217 89.5449 111.432V105.174H91.8564V111.08C91.8564 111.695 92.0264 112.188 92.3662 112.557C92.7119 112.926 93.1631 113.107 93.7197 113.102C94.0596 113.102 94.3877 113.02 94.7041 112.855C95.0264 112.691 95.29 112.445 95.4951 112.117C95.7002 111.789 95.8027 111.376 95.8027 110.878ZM102.14 101.904V115H99.8281V101.904H102.14ZM108.749 105.174V106.967H103.115V105.174H108.749ZM104.495 102.836H106.807V112.047C106.807 112.434 106.892 112.721 107.062 112.908C107.231 113.09 107.501 113.181 107.87 113.181C107.97 113.181 108.081 113.172 108.204 113.154C108.327 113.137 108.438 113.116 108.538 113.093L108.934 114.903C108.688 114.979 108.438 115.035 108.187 115.07C107.935 115.111 107.683 115.132 107.431 115.132C106.517 115.132 105.799 114.892 105.277 114.411C104.756 113.925 104.495 113.263 104.495 112.425V102.836Z" fill="#202020"/>
</svg>
