<svg width="160" height="140" viewBox="0 0 160 140" fill="none" xmlns="http://www.w3.org/2000/svg">
<rect width="160" height="140" rx="24" fill="white" fill-opacity="0.45"/>
<path d="M89.1667 32.4165H70.8334C65.3334 32.4165 61.6667 35.1665 61.6667 41.5832V54.4165C61.6667 60.8332 65.3334 63.5832 70.8334 63.5832H89.1667C94.6667 63.5832 98.3334 60.8332 98.3334 54.4165V41.5832C98.3334 35.1665 94.6667 32.4165 89.1667 32.4165ZM90.0284 43.5815L84.2901 48.1648C83.0801 49.1365 81.5401 49.6132 80.0001 49.6132C78.4601 49.6132 76.9017 49.1365 75.7101 48.1648L69.9717 43.5815C69.3851 43.1048 69.2934 42.2248 69.7517 41.6382C70.2284 41.0515 71.0901 40.9415 71.6767 41.4182L77.4151 46.0015C78.8084 47.1198 81.1734 47.1198 82.5667 46.0015L88.3051 41.4182C88.8917 40.9415 89.7717 41.0332 90.2301 41.6382C90.7067 42.2248 90.6151 43.1048 90.0284 43.5815Z" fill="url(#paint0_linear_192_415)"/>
<path d="M37.1094 115.176C35.9668 115.176 34.9385 114.909 34.0244 114.376C33.1162 113.843 32.3984 113.075 31.8711 112.073C31.3496 111.071 31.0889 109.867 31.0889 108.461C31.0889 107.049 31.3496 105.842 31.8711 104.84C32.3984 103.832 33.1162 103.062 34.0244 102.528C34.9385 101.995 35.9668 101.729 37.1094 101.729C38.2578 101.729 39.2832 101.995 40.1855 102.528C41.0879 103.062 41.8027 103.832 42.3301 104.84C42.8574 105.842 43.1211 107.049 43.1211 108.461C43.1211 109.867 42.8574 111.071 42.3301 112.073C41.8027 113.075 41.0879 113.843 40.1855 114.376C39.2832 114.909 38.2578 115.176 37.1094 115.176ZM37.1094 113.049C37.8184 113.049 38.4453 112.873 38.9902 112.521C39.5352 112.17 39.9629 111.654 40.2734 110.975C40.584 110.289 40.7393 109.451 40.7393 108.461C40.7393 107.465 40.584 106.624 40.2734 105.938C39.9629 105.253 39.5352 104.734 38.9902 104.383C38.4453 104.031 37.8184 103.855 37.1094 103.855C36.4004 103.855 35.7705 104.031 35.2197 104.383C34.6748 104.734 34.2471 105.253 33.9365 105.938C33.626 106.624 33.4707 107.465 33.4707 108.461C33.4707 109.451 33.626 110.289 33.9365 110.975C34.2471 111.654 34.6748 112.17 35.2197 112.521C35.7705 112.873 36.4004 113.049 37.1094 113.049ZM49.4844 105.174V106.967H43.8506V105.174H49.4844ZM45.2305 102.836H47.542V112.047C47.542 112.434 47.627 112.721 47.7969 112.908C47.9668 113.09 48.2363 113.181 48.6055 113.181C48.7051 113.181 48.8164 113.172 48.9395 113.154C49.0625 113.137 49.1738 113.116 49.2734 113.093L49.6689 114.903C49.4229 114.979 49.1738 115.035 48.9219 115.07C48.6699 115.111 48.418 115.132 48.166 115.132C47.252 115.132 46.5342 114.892 46.0127 114.411C45.4912 113.925 45.2305 113.263 45.2305 112.425V102.836ZM53.2812 109.252V115H50.9697V101.904H53.2285V106.853H53.3516C53.5801 106.296 53.9346 105.856 54.415 105.534C54.8955 105.212 55.5137 105.051 56.2695 105.051C56.9492 105.051 57.541 105.194 58.0449 105.481C58.5547 105.769 58.9502 106.188 59.2314 106.738C59.5127 107.289 59.6533 107.96 59.6533 108.751V115H57.333V109.111C57.333 108.443 57.1631 107.928 56.8232 107.564C56.4834 107.195 56.0088 107.011 55.3994 107.011C54.9893 107.011 54.623 107.099 54.3008 107.274C53.9844 107.45 53.7354 107.705 53.5537 108.039C53.3721 108.367 53.2812 108.771 53.2812 109.252ZM65.709 115.193C64.7246 115.193 63.875 114.988 63.1602 114.578C62.4453 114.162 61.8945 113.576 61.5078 112.82C61.127 112.064 60.9365 111.174 60.9365 110.148C60.9365 109.135 61.127 108.247 61.5078 107.485C61.8887 106.718 62.4248 106.12 63.1162 105.692C63.8076 105.265 64.6221 105.051 65.5596 105.051C66.1631 105.051 66.7344 105.147 67.2734 105.341C67.8184 105.534 68.2988 105.833 68.7148 106.237C69.1367 106.642 69.4678 107.157 69.708 107.784C69.9482 108.405 70.0684 109.146 70.0684 110.008V110.729H62.0176V109.173H68.917L67.8359 109.63C67.8359 109.073 67.751 108.59 67.5811 108.18C67.4111 107.764 67.1592 107.438 66.8252 107.204C66.4912 106.97 66.0752 106.853 65.5771 106.853C65.0791 106.853 64.6543 106.97 64.3027 107.204C63.9512 107.438 63.6846 107.755 63.5029 108.153C63.3213 108.546 63.2305 108.985 63.2305 109.472V110.553C63.2305 111.15 63.333 111.663 63.5381 112.091C63.749 112.513 64.042 112.835 64.417 113.058C64.7979 113.28 65.2402 113.392 65.7441 113.392C66.0723 113.392 66.3711 113.345 66.6406 113.251C66.916 113.157 67.1504 113.017 67.3438 112.829C67.543 112.636 67.6953 112.398 67.8008 112.117L69.9629 112.372C69.8223 112.94 69.5615 113.438 69.1807 113.866C68.8057 114.288 68.3223 114.616 67.7305 114.851C67.1445 115.079 66.4707 115.193 65.709 115.193ZM71.3252 115V105.174H73.5664V106.826H73.6719C73.8477 106.252 74.1553 105.812 74.5947 105.508C75.0342 105.197 75.5352 105.042 76.0977 105.042C76.2207 105.042 76.3613 105.048 76.5195 105.06C76.6836 105.071 76.8184 105.086 76.9238 105.104V107.23C76.8242 107.195 76.6689 107.166 76.458 107.143C76.2471 107.119 76.0449 107.107 75.8516 107.107C75.4238 107.107 75.043 107.198 74.709 107.38C74.375 107.562 74.1113 107.811 73.918 108.127C73.7305 108.443 73.6367 108.812 73.6367 109.234V115H71.3252ZM86.3105 115.202C85.291 115.202 84.4062 115.044 83.6562 114.728C82.9062 114.411 82.3203 113.951 81.8984 113.348C81.4766 112.738 81.248 112 81.2129 111.133H83.5508C83.5859 111.59 83.7266 111.971 83.9727 112.275C84.2188 112.574 84.541 112.8 84.9395 112.952C85.3438 113.104 85.792 113.181 86.2842 113.181C86.7998 113.181 87.2539 113.102 87.6465 112.943C88.0391 112.785 88.3467 112.565 88.5693 112.284C88.792 112.003 88.9033 111.675 88.9033 111.3C88.9033 110.96 88.8037 110.682 88.6045 110.465C88.4053 110.242 88.1299 110.055 87.7783 109.902C87.4268 109.75 87.0137 109.615 86.5391 109.498L85.0537 109.111C83.9756 108.836 83.126 108.417 82.5049 107.854C81.8838 107.286 81.5732 106.53 81.5732 105.587C81.5732 104.813 81.7812 104.14 82.1973 103.565C82.6133 102.985 83.1816 102.534 83.9023 102.212C84.6289 101.89 85.4492 101.729 86.3633 101.729C87.2949 101.729 88.1123 101.89 88.8154 102.212C89.5186 102.534 90.0693 102.979 90.4678 103.548C90.8662 104.116 91.0742 104.77 91.0918 105.508H88.7979C88.7393 104.945 88.4902 104.512 88.0508 104.207C87.6172 103.896 87.0459 103.741 86.3369 103.741C85.8447 103.741 85.4199 103.814 85.0625 103.961C84.7109 104.107 84.4414 104.31 84.2539 104.567C84.0664 104.825 83.9727 105.118 83.9727 105.446C83.9727 105.81 84.0811 106.108 84.2979 106.343C84.5205 106.571 84.8018 106.756 85.1416 106.896C85.4873 107.037 85.8389 107.154 86.1963 107.248L87.418 107.556C87.9102 107.673 88.3848 107.831 88.8418 108.03C89.2988 108.224 89.709 108.47 90.0723 108.769C90.4414 109.062 90.7314 109.419 90.9424 109.841C91.1592 110.263 91.2676 110.758 91.2676 111.326C91.2676 112.088 91.0713 112.762 90.6787 113.348C90.2861 113.928 89.7207 114.382 88.9824 114.71C88.2441 115.038 87.3535 115.202 86.3105 115.202ZM92.6914 101.904H95.6006L99.4854 111.388H99.6348L103.528 101.904H106.473V115H104.144V106H104.038L100.399 114.956H98.6943L95.0996 105.982H94.9766V115H92.6914V101.904ZM107.8 103.891V101.904H118.241V103.891H114.198V115H111.852V103.891H107.8ZM119.568 115V101.904H124.481C125.489 101.904 126.333 102.092 127.013 102.467C127.698 102.842 128.217 103.357 128.568 104.014C128.92 104.67 129.096 105.414 129.096 106.246C129.096 107.084 128.917 107.831 128.56 108.487C128.208 109.138 127.687 109.65 126.995 110.025C126.304 110.395 125.454 110.579 124.446 110.579H121.194V108.628H124.121C124.713 108.628 125.196 108.528 125.571 108.329C125.952 108.124 126.23 107.843 126.406 107.485C126.588 107.122 126.679 106.709 126.679 106.246C126.679 105.777 126.588 105.367 126.406 105.016C126.23 104.658 125.952 104.383 125.571 104.189C125.196 103.99 124.71 103.891 124.112 103.891H121.941V115H119.568Z" fill="#202020"/>
<defs>
<linearGradient id="paint0_linear_192_415" x1="61.6556" y1="63.5832" x2="92.1389" y2="63.5832" gradientUnits="userSpaceOnUse">
<stop stop-color="#FE3B1F"/>
<stop offset="0.921875" stop-color="#FF6030"/>
</linearGradient>
</defs>
</svg>
