<svg width="128" height="128" viewBox="0 0 128 128" fill="none" xmlns="http://www.w3.org/2000/svg">
<g clip-path="url(#clip0_190_764)">
<path d="M89.2538 9.73023C83.0484 16.1443 80.05 24.6014 80.1611 33.3647C89.0355 33.2555 97.3815 30.0485 103.587 23.7436C109.792 17.3296 112.791 8.87438 112.68 0C103.805 0.208602 95.4593 3.41562 89.2538 9.73023Z" fill="url(#paint0_linear_190_764)"/>
<path d="M57.9816 36.4196C32.69 36.4196 12.1905 56.9309 12.1905 82.2108C12.1905 107.491 32.69 128.002 57.9816 128.002C83.2732 128.002 103.773 107.5 103.773 82.2108C103.773 56.9212 83.2732 36.4196 57.9816 36.4196ZM74.2818 96.7545L57.9816 96.9046V106.303C52.5463 104.578 42.0089 100.808 32.8967 94.3C28.4868 91.1515 25.4747 88.1219 24.0535 83.788C23.3341 81.5947 23.2094 79.6374 23.223 78.2961V78.1382C23.223 67.944 31.4872 59.6778 41.6833 59.6778H74.2838C84.478 59.6778 92.7441 67.942 92.7441 78.1382V78.2961C92.7441 88.4903 84.4799 96.7564 74.2838 96.7564L74.2818 96.7545Z" fill="url(#paint1_linear_190_764)"/>
</g>
<defs>
<linearGradient id="paint0_linear_190_764" x1="12.1601" y1="128.002" x2="95.7053" y2="128.002" gradientUnits="userSpaceOnUse">
<stop stop-color="#FE3B1F"/>
<stop offset="0.921875" stop-color="#FF6030"/>
</linearGradient>
<linearGradient id="paint1_linear_190_764" x1="12.1601" y1="128.002" x2="95.7053" y2="128.002" gradientUnits="userSpaceOnUse">
<stop stop-color="#FE3B1F"/>
<stop offset="0.921875" stop-color="#FF6030"/>
</linearGradient>
<clipPath id="clip0_190_764">
<rect width="128" height="128" fill="white"/>
</clipPath>
</defs>
</svg>
